<svg width="200" height="200" viewBox="0 0 64 64" xmlns="http://www.w3.org/2000/svg">
  <path fill="#FFCC4D" d="M26.857 4.457c-1.667-1.667-4.536-1.667-6.203 0-1.667 1.667-1.667 4.536 0 6.203l3.244 3.244c1.667 1.667 4.536 1.667 6.203 0s1.667-4.536 0-6.203l-3.244-3.244zm12 0c-1.667-1.667-4.536-1.667-6.203 0s-1.667 4.536 0 6.203l3.244 3.244c1.667 1.667 4.536 1.667 6.203 0s1.667-4.536 0-6.203l-3.244-3.244zm-18 8c-1.667-1.667-4.536-1.667-6.203 0s-1.667 4.536 0 6.203l6.203 6.203c1.667 1.667 4.536 1.667 6.203 0s1.667-4.536 0-6.203l-6.203-6.203zm12 0c-1.667-1.667-4.536-1.667-6.203 0s-1.667 4.536 0 6.203l6.203 6.203c1.667 1.667 4.536 1.667 6.203 0s1.667-4.536 0-6.203l-6.203-6.203zm-4.002 15.999c-1.667-1.667-4.536-1.667-6.203 0s-1.667 4.536 0 6.203l8.002 8.002c1.667 1.667 4.536 1.667 6.203 0s1.667-4.536 0-6.203l-8.002-8.002z"/>
  <path fill="#F4900C" d="M10.857 37.457l12 12c1.667 1.667 4.536 1.667 6.203 0s1.667-4.536 0-6.203l-12-12c-1.667-1.667-4.536-1.667-6.203 0s-1.667 4.536 0 6.203z"/>
</svg>

